<?xml version="1.0" standalone="no"?>
<!DOCTYPE svg PUBLIC "-//W3C//DTD SVG 20010904//EN"
 "http://www.w3.org/TR/2001/REC-SVG-20010904/DTD/svg10.dtd">
<svg version="1.0" xmlns="http://www.w3.org/2000/svg"
 width="960.000000pt" height="960.000000pt" viewBox="0 0 960.000000 960.000000"
 preserveAspectRatio="xMidYMid meet">
<metadata>
Created by potrace 1.11, written by Peter Selinger 2001-2013
</metadata>
<g transform="translate(0.000000,960.000000) scale(0.100000,-0.100000)"
fill="#000000" stroke="none">
<path d="M5075 7384 c-134 -14 -336 -49 -435 -75 -968 -255 -1680 -1035 -1830
-2006 -11 -72 -19 -156 -18 -185 1 -45 2 -47 5 -13 27 303 108 605 238 880
228 484 667 919 1160 1150 260 122 485 183 839 230 27 4 135 6 240 6 532 -1
1035 -160 1460 -464 797 -568 1168 -1600 925 -2569 -104 -417 -326 -805 -638
-1116 -384 -384 -854 -619 -1406 -703 -204 -31 -506 -31 -705 0 -550 85 -1019
320 -1400 701 -208 208 -361 422 -480 675 -145 305 -215 598 -239 995 l-9 155
3 -175 c25 -1089 788 -2039 1855 -2310 221 -56 361 -73 620 -74 260 -1 399 16
630 74 860 218 1546 894 1775 1750 59 222 78 375 78 625 0 312 -38 541 -134
815 -305 867 -1049 1474 -1975 1610 -131 19 -467 34 -559 24z"/>
<path d="M4190 6827 c-77 -27 -101 -122 -44 -176 l27 -26 -17 25 c-22 33 -20
62 5 93 41 53 142 56 195 6 l24 -22 0 25 c0 30 -36 65 -81 78 -43 13 -65 12
-109 -3z"/>
<path d="M4898 6830 c-77 -23 -128 -98 -128 -188 0 -81 39 -156 95 -184 18 -8
18 -8 -2 9 -57 48 -80 146 -52 220 36 97 162 131 240 66 44 -38 62 -80 62
-148 1 -58 1 -59 11 -22 15 56 26 45 26 -27 0 -68 6 -96 21 -96 5 0 9 72 9
160 l0 160 90 0 c106 0 142 -14 160 -62 9 -23 14 -28 17 -16 7 26 -23 85 -52
104 -19 13 -54 19 -115 22 -79 4 -90 2 -109 -17 -17 -17 -21 -33 -21 -91 0
-38 -4 -70 -8 -70 -4 0 -13 21 -20 47 -16 58 -73 117 -127 132 -45 12 -59 13
-97 1z"/>
<path d="M6090 6827 c-48 -17 -83 -71 -76 -116 3 -19 12 -42 21 -50 15 -15 15
-14 6 10 -7 20 -6 35 7 60 34 67 149 73 207 11 l25 -27 0 32 c0 64 -108 110
-190 80z"/>
<path d="M6325 6814 c-9 -9 -14 -21 -13 -26 2 -5 67 -10 146 -11 128 -2 142 0
142 15 0 29 -34 38 -149 38 -88 0 -113 -3 -126 -16z"/>
<path d="M4440 6794 c-11 -27 -14 -275 -4 -311 16 -58 24 -10 24 137 0 153 1
160 20 160 18 0 20 -7 20 -70 l0 -70 95 0 95 0 0 70 c0 63 2 70 20 70 19 0 20
-7 22 -147 l2 -148 3 141 c4 149 -4 194 -35 194 -27 0 -42 -20 -42 -58 0 -59
-14 -72 -75 -72 -61 0 -75 13 -75 72 0 58 -51 82 -70 32z"/>
<path d="M5622 6808 c-15 -15 -17 -334 -2 -343 7 -4 10 50 10 154 0 154 1 161
20 161 19 0 20 -7 20 -149 l0 -150 90 -3 c65 -2 90 0 90 9 0 20 -22 28 -90 33
l-65 5 -5 135 c-3 74 -9 141 -13 148 -10 15 -39 16 -55 0z"/>
<path d="M5892 6808 c-8 -8 -12 -61 -12 -174 0 -131 3 -164 15 -174 13 -11 15
7 15 154 0 159 1 166 20 166 18 0 20 -8 23 -152 l3 -153 2 153 c1 91 -2 161
-8 173 -12 21 -40 25 -58 7z"/>
<path d="M4300 6746 c0 -2 8 -10 18 -17 15 -13 16 -12 3 4 -13 16 -21 21 -21
13z"/>
<path d="M5018 6725 c62 -79 19 -215 -69 -215 -18 0 -41 11 -61 29 -31 27 -33
34 -33 94 0 67 -9 70 -20 6 -9 -50 9 -110 41 -140 37 -34 121 -35 158 0 65 62
55 204 -17 243 -20 10 -20 10 1 -17z"/>
<path d="M5220 6685 l0 -65 70 0 c78 0 110 19 110 65 0 26 -31 65 -52 65 -9 0
-9 -3 0 -12 18 -18 14 -56 -7 -68 -29 -15 -87 -12 -101 5 -7 9 -10 27 -6 45 3
17 1 30 -4 30 -6 0 -10 -29 -10 -65z"/>
<path d="M6418 6613 c5 -190 22 -197 22 -10 0 111 -3 147 -12 147 -10 0 -12
-32 -10 -137z"/>
<path d="M6480 6603 c0 -80 3 -143 8 -139 4 4 9 70 12 147 4 107 2 139 -7 139
-10 0 -13 -36 -13 -147z"/>
<path d="M4185 6728 c-4 -9 -5 -27 -3 -40 2 -19 16 -27 87 -50 95 -31 110 -42
121 -89 l8 -34 1 40 c2 67 -34 100 -141 131 -33 10 -52 22 -58 37 -7 19 -9 20
-15 5z"/>
<path d="M6080 6726 c-6 -8 -10 -25 -8 -38 2 -19 15 -26 63 -41 126 -38 166
-75 145 -134 -9 -26 -9 -27 5 -9 21 27 19 75 -4 112 -14 23 -35 38 -78 53 -77
28 -109 45 -105 59 3 16 -3 15 -18 -2z"/>
<path d="M4501 6538 c1 -85 6 -80 11 10 3 34 1 62 -4 62 -4 0 -8 -33 -7 -72z"/>
<path d="M4658 6543 c2 -40 10 -74 18 -83 12 -12 14 -3 14 68 0 72 -2 82 -18
82 -16 0 -17 -8 -14 -67z"/>
<path d="M4310 6575 c6 -8 9 -23 5 -34 -14 -45 -101 -38 -135 9 -40 56 -91 26
-65 -37 14 -33 67 -73 95 -73 8 1 1 7 -16 14 -35 15 -64 51 -64 78 0 28 23 21
42 -12 9 -17 30 -35 45 -41 40 -15 104 -4 125 21 23 29 23 45 -2 70 -24 24
-49 28 -30 5z"/>
<path d="M5221 6533 l2 -58 6 48 c4 27 14 53 22 58 11 7 9 9 -8 9 -21 0 -23
-4 -22 -57z"/>
<path d="M6208 6578 c8 -9 11 -26 7 -37 -14 -45 -101 -38 -135 9 -24 33 -51
38 -71 14 -11 -13 -10 -22 6 -52 11 -19 31 -42 45 -51 24 -15 24 -14 -2 13
-16 16 -28 32 -28 37 0 4 -3 14 -6 23 -4 11 0 16 14 16 13 0 22 -9 26 -26 13
-51 121 -69 168 -27 25 23 20 61 -12 82 -23 15 -24 15 -12 -1z"/>
<path d="M3842 3653 c-63 -31 -81 -111 -36 -160 20 -22 23 -23 15 -6 -29 60 6
121 76 130 54 7 84 -1 122 -33 28 -23 31 -24 31 -7 0 73 -123 118 -208 76z"/>
<path d="M4545 3656 c-80 -35 -125 -138 -104 -238 9 -41 21 -63 54 -95 23 -24
47 -43 54 -43 6 0 -7 16 -28 36 -91 81 -70 246 35 290 50 21 106 17 144 -8 54
-37 73 -71 78 -140 4 -45 7 -57 13 -43 21 54 -2 149 -49 199 -50 53 -131 71
-197 42z"/>
<path d="M5344 3656 c-17 -8 -39 -24 -48 -37 -22 -33 -21 -92 4 -120 l20 -24
-11 27 c-9 21 -9 34 1 58 30 71 150 82 209 19 11 -12 24 -19 28 -16 12 13 -11
59 -39 80 -35 26 -121 33 -164 13z"/>
<path d="M4116 3644 c-13 -13 -16 -43 -16 -169 0 -84 3 -160 6 -169 17 -44 24
-1 24 144 0 153 1 160 20 160 18 0 20 -7 20 -70 l0 -70 95 0 95 0 0 70 c0 55
3 70 15 70 12 0 15 -26 18 -152 l3 -153 2 167 c2 158 1 168 -18 178 -31 17
-60 -19 -60 -74 0 -50 -8 -56 -74 -56 -53 0 -66 13 -66 65 0 28 -6 47 -18 58
-23 21 -27 21 -46 1z"/>
<path d="M4832 3648 c-26 -34 -22 -346 6 -356 9 -3 12 33 12 157 l0 161 99 0
c113 0 137 -11 151 -70 l8 -35 1 33 c1 44 -23 88 -59 107 -37 19 -203 21 -218
3z"/>
<path d="M5609 3643 c-19 -22 -20 -326 -1 -344 10 -11 12 19 12 149 l0 162 33
0 33 0 48 -147 c27 -82 51 -143 53 -138 3 6 26 71 51 145 44 126 49 135 75
138 l27 3 0 -154 0 -155 26 -5 c29 -5 28 -7 105 196 40 108 46 118 68 115 20
-3 32 -23 85 -153 34 -82 63 -148 66 -146 3 2 15 -1 28 -8 l22 -12 0 161 0
160 109 0 c124 0 147 -10 161 -70 l8 -35 1 42 c1 34 -5 50 -28 75 -29 33 -30
33 -136 36 -73 3 -110 0 -120 -8 -12 -10 -15 -38 -15 -125 0 -116 -7 -175 -20
-175 -4 0 -29 53 -55 118 -67 168 -74 181 -102 188 -37 10 -57 -17 -99 -129
-20 -56 -47 -120 -58 -142 l-21 -40 -5 141 c-5 150 -13 174 -55 174 -32 0 -49
-25 -79 -115 -45 -136 -51 -136 -96 0 -20 59 -39 99 -50 105 -28 15 -56 12
-71 -7z"/>
<path d="M6663 3653 c-7 -2 -13 -14 -13 -26 0 -22 2 -22 132 -19 157 3 163 4
148 32 -10 18 -20 20 -133 19 -67 0 -128 -3 -134 -6z"/>
<path d="M6126 3563 c-4 -15 -10 -37 -13 -48 -5 -17 -3 -18 9 -8 17 15 28 7
28 -19 0 -20 -40 -26 -40 -5 -1 18 -29 -35 -30 -55 0 -15 9 -18 60 -18 33 0
60 3 60 8 0 8 -59 165 -64 170 -2 2 -7 -10 -10 -25z"/>
<path d="M6380 3525 l0 -65 68 0 c87 0 116 15 120 60 3 24 -2 38 -14 47 -24
18 -39 16 -24 -2 26 -32 -45 -66 -106 -51 -23 6 -26 11 -22 41 3 24 0 35 -9
35 -9 0 -13 -18 -13 -65z"/>
<path d="M3970 3576 c0 -2 7 -9 15 -16 9 -7 15 -8 15 -2 0 5 -7 12 -15 16 -8
3 -15 4 -15 2z"/>
<path d="M4688 3555 c33 -42 31 -133 -4 -174 -21 -26 -33 -31 -69 -31 -36 0
-48 5 -70 32 -24 28 -26 38 -23 94 4 75 -11 70 -19 -7 -10 -97 35 -160 116
-163 79 -2 121 46 121 139 0 62 -19 108 -52 126 l-21 12 21 -28z"/>
<path d="M4892 3518 l-2 -68 64 0 c77 0 109 20 109 68 0 34 -18 62 -39 62 -12
0 -12 -4 -2 -20 25 -39 -36 -81 -96 -66 -21 5 -25 13 -29 49 -2 30 -4 23 -5
-25z"/>
<path d="M5470 3576 c0 -2 8 -10 18 -17 15 -13 16 -12 3 4 -13 16 -21 21 -21
13z"/>
<path d="M6750 3452 c0 -97 4 -133 15 -148 13 -17 14 -3 15 129 0 124 -2 147
-15 147 -13 0 -15 -21 -15 -128z"/>
<path d="M6810 3438 c0 -181 18 -174 22 10 2 101 0 132 -9 132 -10 0 -13 -35
-13 -142z"/>
<path d="M3844 3545 c-9 -36 10 -53 82 -71 82 -22 113 -40 129 -77 14 -31 14
-31 15 -6 0 14 -10 41 -23 60 -18 27 -37 39 -96 59 -40 14 -79 33 -86 44 -13
17 -14 17 -21 -9z"/>
<path d="M5347 3563 c-4 -3 -7 -19 -7 -35 0 -32 16 -41 102 -59 27 -6 62 -22
79 -37 26 -21 30 -31 27 -63 -4 -45 9 -42 17 5 8 40 -13 86 -48 109 -13 9 -50
23 -81 32 -30 9 -62 25 -69 36 -8 10 -17 16 -20 12z"/>
<path d="M5661 3439 c1 -74 4 -120 6 -104 13 110 19 114 47 28 10 -28 24 -57
32 -63 7 -7 14 -10 14 -8 0 8 -92 273 -96 277 -2 2 -3 -56 -3 -130z"/>
<path d="M5876 3503 c-10 -32 -21 -64 -24 -71 -2 -7 2 -12 9 -10 10 2 15 -10
17 -42 3 -61 10 -90 22 -90 6 0 10 53 10 135 0 74 -4 135 -8 135 -5 0 -16 -26
-26 -57z"/>
<path d="M6530 3440 c-22 -6 -23 -8 -7 -15 10 -4 37 -35 60 -69 31 -45 42 -56
45 -43 2 11 -10 41 -27 69 -17 27 -31 54 -31 59 0 10 -5 10 -40 -1z"/>
<path d="M4173 3380 c0 -36 2 -50 4 -32 2 17 2 47 0 65 -2 17 -4 3 -4 -33z"/>
<path d="M4320 3384 c0 -56 12 -94 30 -94 6 0 10 33 10 75 0 68 -2 75 -20 75
-18 0 -20 -7 -20 -56z"/>
<path d="M3969 3411 c17 -17 19 -26 11 -41 -21 -39 -94 -29 -140 20 -25 26
-32 29 -50 20 -24 -13 -25 -31 -5 -70 16 -31 80 -70 112 -70 10 1 0 7 -22 15
-44 16 -75 47 -75 76 0 10 7 19 15 19 8 0 15 -5 15 -10 0 -6 11 -22 25 -35 20
-20 34 -25 78 -25 61 0 87 19 87 62 0 28 -13 42 -48 53 l-24 7 21 -21z"/>
<path d="M6381 3363 c0 -47 3 -62 9 -48 12 28 12 115 0 115 -6 0 -10 -29 -9
-67z"/>
<path d="M6517 3360 c25 -39 50 -70 56 -70 5 0 1 12 -9 28 -56 86 -67 101 -80
106 -7 3 7 -26 33 -64z"/>
<path d="M4892 3368 l1 -53 4 45 c3 24 10 48 16 52 8 5 6 8 -5 8 -15 0 -18 -8
-16 -52z"/>
<path d="M5287 3408 c-28 -15 -20 -57 17 -94 19 -19 39 -34 44 -34 5 0 -5 15
-24 34 -19 19 -34 41 -34 50 0 25 29 19 40 -8 12 -34 39 -46 99 -46 77 0 118
52 73 93 -26 23 -29 21 -24 -12 3 -25 0 -30 -28 -39 -38 -14 -92 4 -109 36
-13 25 -33 32 -54 20z"/>
<path d="M5821 3349 c-6 -18 -9 -34 -7 -36 2 -2 9 10 15 28 6 18 9 34 7 36 -2
2 -9 -10 -15 -28z"/>
<path d="M6056 3365 c-9 -26 -7 -32 5 -12 6 10 9 21 6 23 -2 3 -7 -2 -11 -11z"/>
<path d="M6210 3341 c28 -56 42 -60 24 -6 -9 25 -22 45 -30 45 -12 0 -10 -8 6
-39z"/>
<path d="M4578 3273 c7 -3 16 -2 19 1 4 3 -2 6 -13 5 -11 0 -14 -3 -6 -6z"/>
<path d="M5378 3273 c6 -2 18 -2 25 0 6 3 1 5 -13 5 -14 0 -19 -2 -12 -5z"/>
</g>
</svg>
